<mxfile host="app.diagrams.net" modified="2020-06-08T03:10:07.839Z" agent="5.0 (X11; Linux x86_64) AppleWebKit/537.36 (KHTML, like Gecko) Ubuntu Chromium/83.0.4103.61 Chrome/83.0.4103.61 Safari/537.36" etag="s3igmLK3VrSYuNSv7Xmo" version="13.0.8" type="github">
  <diagram id="0lKBUqZswitYHXeArTOi" name="Hardware Architecture">
    <mxGraphModel dx="955" dy="769" grid="1" gridSize="10" guides="1" tooltips="1" connect="1" arrows="1" fold="1" page="1" pageScale="1" pageWidth="850" pageHeight="1100" math="0" shadow="0">
      <root>
        <mxCell id="0" />
        <mxCell id="1" parent="0" />
        <mxCell id="iFdWRhPoa3ndI0mYu5_--13" style="edgeStyle=orthogonalEdgeStyle;rounded=0;orthogonalLoop=1;jettySize=auto;html=1;exitX=1;exitY=0.5;exitDx=0;exitDy=0;entryX=0;entryY=0.5;entryDx=0;entryDy=0;" edge="1" parent="1" source="iFdWRhPoa3ndI0mYu5_--1" target="iFdWRhPoa3ndI0mYu5_--9">
          <mxGeometry relative="1" as="geometry" />
        </mxCell>
        <mxCell id="iFdWRhPoa3ndI0mYu5_--1" value="Radar" style="rounded=0;whiteSpace=wrap;html=1;" vertex="1" parent="1">
          <mxGeometry x="40" y="240" width="120" height="60" as="geometry" />
        </mxCell>
        <mxCell id="iFdWRhPoa3ndI0mYu5_--10" style="edgeStyle=orthogonalEdgeStyle;rounded=0;orthogonalLoop=1;jettySize=auto;html=1;exitX=1;exitY=0.5;exitDx=0;exitDy=0;entryX=0;entryY=0.5;entryDx=0;entryDy=0;" edge="1" parent="1" source="iFdWRhPoa3ndI0mYu5_--2" target="iFdWRhPoa3ndI0mYu5_--8">
          <mxGeometry relative="1" as="geometry" />
        </mxCell>
        <mxCell id="iFdWRhPoa3ndI0mYu5_--2" value="Wheel Motor x2" style="rounded=0;whiteSpace=wrap;html=1;" vertex="1" parent="1">
          <mxGeometry x="40" y="80" width="120" height="60" as="geometry" />
        </mxCell>
        <mxCell id="iFdWRhPoa3ndI0mYu5_--12" style="edgeStyle=orthogonalEdgeStyle;rounded=0;orthogonalLoop=1;jettySize=auto;html=1;exitX=1;exitY=0.5;exitDx=0;exitDy=0;entryX=0;entryY=0.5;entryDx=0;entryDy=0;" edge="1" parent="1" source="iFdWRhPoa3ndI0mYu5_--3" target="iFdWRhPoa3ndI0mYu5_--8">
          <mxGeometry relative="1" as="geometry" />
        </mxCell>
        <mxCell id="iFdWRhPoa3ndI0mYu5_--3" value="Manipulator" style="rounded=0;whiteSpace=wrap;html=1;" vertex="1" parent="1">
          <mxGeometry x="40" y="160" width="120" height="60" as="geometry" />
        </mxCell>
        <mxCell id="iFdWRhPoa3ndI0mYu5_--14" style="edgeStyle=orthogonalEdgeStyle;rounded=0;orthogonalLoop=1;jettySize=auto;html=1;exitX=1;exitY=0.5;exitDx=0;exitDy=0;entryX=0;entryY=0.5;entryDx=0;entryDy=0;" edge="1" parent="1" source="iFdWRhPoa3ndI0mYu5_--5" target="iFdWRhPoa3ndI0mYu5_--9">
          <mxGeometry relative="1" as="geometry" />
        </mxCell>
        <mxCell id="iFdWRhPoa3ndI0mYu5_--5" value="Astra Camera" style="rounded=0;whiteSpace=wrap;html=1;" vertex="1" parent="1">
          <mxGeometry x="40" y="320" width="120" height="60" as="geometry" />
        </mxCell>
        <mxCell id="iFdWRhPoa3ndI0mYu5_--15" style="edgeStyle=orthogonalEdgeStyle;rounded=0;orthogonalLoop=1;jettySize=auto;html=1;exitX=1;exitY=0.5;exitDx=0;exitDy=0;entryX=0;entryY=0.5;entryDx=0;entryDy=0;" edge="1" parent="1" source="iFdWRhPoa3ndI0mYu5_--6" target="iFdWRhPoa3ndI0mYu5_--9">
          <mxGeometry relative="1" as="geometry" />
        </mxCell>
        <mxCell id="iFdWRhPoa3ndI0mYu5_--6" value="Microphone" style="rounded=0;whiteSpace=wrap;html=1;align=center;" vertex="1" parent="1">
          <mxGeometry x="40" y="400" width="120" height="60" as="geometry" />
        </mxCell>
        <mxCell id="iFdWRhPoa3ndI0mYu5_--16" style="edgeStyle=orthogonalEdgeStyle;rounded=0;orthogonalLoop=1;jettySize=auto;html=1;exitX=1;exitY=0.5;exitDx=0;exitDy=0;entryX=0;entryY=0.5;entryDx=0;entryDy=0;" edge="1" parent="1" source="iFdWRhPoa3ndI0mYu5_--7" target="iFdWRhPoa3ndI0mYu5_--9">
          <mxGeometry relative="1" as="geometry" />
        </mxCell>
        <mxCell id="iFdWRhPoa3ndI0mYu5_--7" value="Speaker" style="rounded=0;whiteSpace=wrap;html=1;align=center;" vertex="1" parent="1">
          <mxGeometry x="40" y="480" width="120" height="60" as="geometry" />
        </mxCell>
        <mxCell id="iFdWRhPoa3ndI0mYu5_--22" style="edgeStyle=orthogonalEdgeStyle;rounded=0;orthogonalLoop=1;jettySize=auto;html=1;exitX=1;exitY=0.5;exitDx=0;exitDy=0;entryX=0;entryY=0.5;entryDx=0;entryDy=0;" edge="1" parent="1" source="iFdWRhPoa3ndI0mYu5_--8" target="iFdWRhPoa3ndI0mYu5_--19">
          <mxGeometry relative="1" as="geometry" />
        </mxCell>
        <mxCell id="iFdWRhPoa3ndI0mYu5_--8" value="OpenCR" style="rounded=0;whiteSpace=wrap;html=1;align=center;" vertex="1" parent="1">
          <mxGeometry x="240" y="120" width="120" height="60" as="geometry" />
        </mxCell>
        <mxCell id="iFdWRhPoa3ndI0mYu5_--21" style="edgeStyle=orthogonalEdgeStyle;rounded=0;orthogonalLoop=1;jettySize=auto;html=1;exitX=1;exitY=0.5;exitDx=0;exitDy=0;entryX=0;entryY=0.5;entryDx=0;entryDy=0;" edge="1" parent="1" source="iFdWRhPoa3ndI0mYu5_--9" target="iFdWRhPoa3ndI0mYu5_--19">
          <mxGeometry relative="1" as="geometry" />
        </mxCell>
        <mxCell id="iFdWRhPoa3ndI0mYu5_--9" value="Jetson Nano" style="rounded=0;whiteSpace=wrap;html=1;align=center;" vertex="1" parent="1">
          <mxGeometry x="240" y="360" width="120" height="60" as="geometry" />
        </mxCell>
        <mxCell id="iFdWRhPoa3ndI0mYu5_--18" style="edgeStyle=orthogonalEdgeStyle;rounded=0;orthogonalLoop=1;jettySize=auto;html=1;exitX=0.5;exitY=0;exitDx=0;exitDy=0;entryX=0.5;entryY=1;entryDx=0;entryDy=0;" edge="1" parent="1" source="iFdWRhPoa3ndI0mYu5_--17" target="iFdWRhPoa3ndI0mYu5_--9">
          <mxGeometry relative="1" as="geometry" />
        </mxCell>
        <mxCell id="iFdWRhPoa3ndI0mYu5_--17" value="WiFi Module" style="rounded=0;whiteSpace=wrap;html=1;align=center;" vertex="1" parent="1">
          <mxGeometry x="240" y="480" width="120" height="60" as="geometry" />
        </mxCell>
        <mxCell id="iFdWRhPoa3ndI0mYu5_--19" value="ROS" style="rounded=0;whiteSpace=wrap;html=1;align=center;" vertex="1" parent="1">
          <mxGeometry x="440" y="240" width="120" height="60" as="geometry" />
        </mxCell>
        <mxCell id="iFdWRhPoa3ndI0mYu5_--23" style="edgeStyle=orthogonalEdgeStyle;rounded=0;orthogonalLoop=1;jettySize=auto;html=1;exitX=0;exitY=0.5;exitDx=0;exitDy=0;entryX=1;entryY=0.5;entryDx=0;entryDy=0;" edge="1" parent="1" source="iFdWRhPoa3ndI0mYu5_--20" target="iFdWRhPoa3ndI0mYu5_--19">
          <mxGeometry relative="1" as="geometry" />
        </mxCell>
        <mxCell id="iFdWRhPoa3ndI0mYu5_--20" value="Remote PC" style="rounded=0;whiteSpace=wrap;html=1;align=center;" vertex="1" parent="1">
          <mxGeometry x="640" y="240" width="120" height="60" as="geometry" />
        </mxCell>
        <mxCell id="iFdWRhPoa3ndI0mYu5_--25" style="edgeStyle=orthogonalEdgeStyle;rounded=0;orthogonalLoop=1;jettySize=auto;html=1;exitX=0.5;exitY=0;exitDx=0;exitDy=0;entryX=0.5;entryY=1;entryDx=0;entryDy=0;" edge="1" parent="1" source="iFdWRhPoa3ndI0mYu5_--24" target="iFdWRhPoa3ndI0mYu5_--8">
          <mxGeometry relative="1" as="geometry" />
        </mxCell>
        <mxCell id="iFdWRhPoa3ndI0mYu5_--26" style="edgeStyle=orthogonalEdgeStyle;rounded=0;orthogonalLoop=1;jettySize=auto;html=1;exitX=0.5;exitY=1;exitDx=0;exitDy=0;entryX=0.5;entryY=0;entryDx=0;entryDy=0;" edge="1" parent="1" source="iFdWRhPoa3ndI0mYu5_--24" target="iFdWRhPoa3ndI0mYu5_--9">
          <mxGeometry relative="1" as="geometry" />
        </mxCell>
        <mxCell id="iFdWRhPoa3ndI0mYu5_--24" value="12V Power Supply" style="rounded=0;whiteSpace=wrap;html=1;align=center;" vertex="1" parent="1">
          <mxGeometry x="240" y="240" width="120" height="60" as="geometry" />
        </mxCell>
      </root>
    </mxGraphModel>
  </diagram>
</mxfile>
